<?xml version="1.0" standalone="no"?>
<!DOCTYPE svg PUBLIC "-//W3C//DTD SVG 20010904//EN"
 "http://www.w3.org/TR/2001/REC-SVG-20010904/DTD/svg10.dtd">
<svg version="1.0" xmlns="http://www.w3.org/2000/svg"
 width="512.000000pt" height="512.000000pt" viewBox="0 0 512.000000 512.000000"
 preserveAspectRatio="xMidYMid meet">

<g transform="translate(0.000000,512.000000) scale(0.100000,-0.100000)"
fill="#000000" stroke="none">
<path d="M3653 4665 c-128 -35 -161 -61 -456 -354 -153 -152 -294 -299 -313
-327 -78 -113 -108 -261 -80 -394 32 -151 49 -174 375 -501 238 -237 308 -301
356 -326 162 -84 340 -86 500 -6 64 32 609 569 666 657 55 83 79 168 79 275 0
99 -17 167 -63 256 -46 88 -585 627 -673 673 -114 59 -274 78 -391 47z m250
-299 c23 -13 160 -143 303 -288 281 -283 288 -293 287 -394 0 -27 -8 -68 -18
-90 -25 -53 -503 -536 -570 -575 -41 -23 -62 -29 -113 -29 -34 0 -79 7 -100
15 -24 11 -129 107 -301 278 -278 277 -311 319 -311 401 0 95 6 104 294 394
256 259 296 294 356 313 43 14 128 2 173 -25z"/>
<path d="M3723 4194 c-18 -9 -43 -33 -55 -53 -22 -34 -23 -45 -23 -246 0 -241
5 -259 83 -296 70 -34 142 -13 182 54 18 29 20 51 20 243 0 203 -1 212 -23
245 -42 63 -119 85 -184 53z"/>
<path d="M3735 3476 c-69 -32 -104 -107 -86 -187 23 -103 145 -151 225 -88 80
63 75 210 -8 264 -35 23 -95 28 -131 11z"/>
<path d="M895 3940 c-216 -32 -396 -163 -490 -355 -69 -139 -66 -84 -63 -1196
l3 -1004 23 -62 c70 -185 213 -329 400 -402 l67 -26 420 -3 420 -3 205 -204
c236 -234 258 -249 380 -249 66 -1 85 4 142 32 56 27 94 61 256 227 l190 195
394 0 c442 0 454 1 595 70 136 67 253 197 308 344 40 107 46 193 43 598 -3
362 -4 378 -24 404 -51 69 -130 87 -196 45 -64 -39 -63 -25 -68 -486 l-5 -420
-26 -55 c-32 -68 -68 -112 -125 -151 -92 -63 -87 -62 -576 -68 l-448 -6 -223
-223 c-122 -122 -229 -222 -238 -222 -9 0 -103 90 -209 200 -106 110 -207 210
-224 223 -31 22 -36 22 -476 27 l-445 5 -65 31 c-92 44 -134 84 -177 172 l-38
76 0 955 c0 886 1 960 18 1006 33 97 131 195 225 227 28 9 222 14 762 18 682
5 728 6 754 23 39 26 69 97 60 143 -9 48 -57 101 -102 114 -43 12 -1368 12
-1447 0z"/>
<path d="M1435 2615 c-35 -9 -61 -25 -91 -57 -164 -173 38 -436 251 -326 66
35 105 102 105 183 0 143 -125 238 -265 200z"/>
<path d="M2212 2620 c-97 -23 -169 -123 -160 -220 19 -199 268 -265 383 -102
27 39 30 52 30 117 0 65 -3 78 -30 117 -50 70 -144 108 -223 88z"/>
<path d="M2985 2621 c-102 -25 -165 -104 -165 -206 0 -118 89 -208 205 -208
122 1 209 87 209 208 0 97 -56 173 -148 200 -54 16 -57 16 -101 6z"/>
</g>
</svg>
