<?xml version="1.0" standalone="no"?>
<!DOCTYPE svg PUBLIC "-//W3C//DTD SVG 20010904//EN"
 "http://www.w3.org/TR/2001/REC-SVG-20010904/DTD/svg10.dtd">
<svg version="1.0" xmlns="http://www.w3.org/2000/svg"
 width="512.000000pt" height="512.000000pt" viewBox="0 0 512.000000 512.000000"
 preserveAspectRatio="xMidYMid meet">

<g transform="translate(0.000000,512.000000) scale(0.100000,-0.100000)"
fill="#000000" stroke="none">
<path d="M406 4895 c-73 -30 -137 -91 -168 -159 l-23 -51 -3 -895 c-2 -660 1
-902 9 -923 30 -71 123 -91 177 -38 16 17 32 44 36 62 3 17 6 417 6 889 0 852
0 857 21 884 l20 26 2180 0 2180 0 24 -25 25 -24 0 -1286 0 -1286 -25 -24 -24
-25 -286 0 c-219 0 -293 -3 -318 -14 -94 -39 -87 -177 11 -207 24 -7 138 -9
337 -7 282 3 303 4 346 24 67 31 124 87 156 152 l28 57 0 1330 0 1330 -24 52
c-30 68 -102 134 -174 162 l-58 21 -2197 0 -2197 0 -59 -25z"/>
<path d="M1615 4429 c-358 -36 -648 -302 -721 -658 -21 -108 -15 -274 15 -379
111 -384 494 -643 881 -593 294 38 533 210 654 473 58 125 70 185 70 348 0
135 -3 152 -31 237 -74 224 -216 389 -418 489 -143 71 -297 99 -450 83z m278
-254 c139 -48 263 -154 331 -285 46 -88 66 -170 66 -275 0 -167 -57 -303 -174
-420 -82 -81 -163 -127 -272 -155 -141 -36 -295 -18 -427 52 -134 71 -253 223
-292 375 -20 75 -19 219 1 297 56 218 247 396 467 436 83 15 219 4 300 -25z"/>
<path d="M727 2620 c-335 -57 -593 -285 -694 -617 -25 -84 -27 -99 -31 -367
-5 -347 7 -441 78 -600 85 -188 281 -372 483 -450 l82 -32 6 -70 c9 -117 79
-219 183 -266 l51 -23 840 0 c840 0 840 0 887 22 66 30 132 95 159 156 23 50
24 63 29 362 l5 310 32 -55 c174 -300 523 -470 864 -421 90 13 656 195 743
238 72 36 151 120 189 200 27 58 32 82 35 165 3 73 0 109 -13 150 -62 185
-219 298 -415 298 -73 0 -102 -7 -346 -86 -258 -84 -267 -86 -298 -72 -27 14
-58 68 -245 429 -118 228 -228 437 -246 464 -49 77 -154 169 -239 210 -137 66
-124 65 -1159 64 -513 -1 -954 -5 -980 -9z m2035 -258 c113 -56 135 -87 383
-566 122 -236 235 -446 252 -465 49 -59 124 -94 213 -99 72 -4 85 -1 322 77
280 91 311 98 364 81 172 -55 203 -287 51 -374 -23 -13 -175 -68 -337 -121
-279 -93 -301 -98 -398 -103 -169 -8 -326 46 -449 153 -78 68 -111 120 -249
386 -69 134 -136 254 -148 267 -12 12 -39 25 -59 29 -52 8 -94 -12 -118 -58
-18 -36 -19 -63 -19 -569 l0 -531 -25 -24 -24 -25 -795 0 -795 0 -24 23 c-14
12 -28 34 -31 48 -7 30 10 39 79 39 78 0 213 39 363 104 l82 35 34 -29 c66
-58 163 -77 237 -46 47 20 629 529 656 574 42 69 37 91 -122 459 -80 185 -155
352 -168 370 -41 62 -140 83 -202 44 -16 -10 -145 -125 -285 -255 -140 -130
-257 -236 -260 -236 -3 0 -104 107 -225 237 -263 282 -290 300 -391 254 -49
-23 -84 -68 -91 -120 -6 -41 52 -579 68 -644 6 -21 26 -56 46 -78 52 -58 106
-83 178 -83 54 -1 80 8 255 84 164 71 203 85 247 84 104 -1 180 -89 171 -200
-7 -83 -41 -118 -169 -176 -289 -130 -408 -164 -545 -154 -159 11 -299 79
-424 205 -84 85 -139 181 -164 291 -22 93 -22 577 0 670 51 221 239 410 459
464 51 12 210 14 1025 13 l965 -2 67 -33z m-757 -840 c93 -218 106 -255 94
-267 -39 -40 -335 -292 -338 -290 -2 2 2 27 9 56 36 149 -38 333 -170 422
l-51 34 168 156 c93 85 171 152 174 149 3 -4 54 -121 114 -260z m-1021 19 c53
-57 93 -108 89 -112 -13 -13 -195 -90 -200 -85 -5 5 -42 295 -43 336 l0 25 29
-30 c16 -17 72 -77 125 -134z"/>
</g>
</svg>
